<svg width="24" height="24" viewBox="0 0 24 24" fill="none" xmlns="http://www.w3.org/2000/svg">
<path d="M3 9.75V8.625C2.99996 8.13288 3.10754 7.6467 3.31521 7.20054C3.52287 6.75438 3.82559 6.35904 4.20216 6.04221C4.57872 5.72538 5.02002 5.49473 5.49512 5.36643C5.97023 5.23814 6.46764 5.21529 6.9525 5.2995C7.26808 4.20464 7.9311 3.24208 8.84157 2.55699C9.75203 1.87189 10.8606 1.5014 12 1.5014C13.1394 1.5014 14.248 1.87189 15.1584 2.55699C16.0689 3.24208 16.7319 4.20464 17.0475 5.2995C17.5324 5.21529 18.0298 5.23814 18.5049 5.36643C18.98 5.49473 19.4213 5.72538 19.7978 6.04221C20.1744 6.35904 20.4771 6.75438 20.6848 7.20054C20.8925 7.6467 21 8.13288 21 8.625V9.75C21.0003 12.0073 20.1524 14.1824 18.6243 15.8439C17.0962 17.5053 14.9995 18.5319 12.75 18.72V21H11.25V18.72C9.00051 18.5319 6.90384 17.5053 5.37574 15.8439C3.84763 14.1824 2.99967 12.0073 3 9.75ZM9.729 8.9985H14.271C14.2043 8.40414 14.297 7.80274 14.5395 7.25603C14.782 6.70932 15.1656 6.23698 15.651 5.8875C15.4567 5.06514 14.9905 4.33246 14.3279 3.80813C13.6652 3.28379 12.845 2.99852 12 2.99852C11.155 2.99852 10.3348 3.28379 9.67213 3.80813C9.00949 4.33246 8.54328 5.06514 8.349 5.8875C8.83459 6.23711 9.21836 6.70969 9.46089 7.25669C9.70341 7.8037 9.79595 8.4054 9.729 9V8.9985ZM8.0205 8.9985C8.07612 8.75158 8.07549 8.4953 8.01864 8.24866C7.96179 8.00202 7.85019 7.77132 7.6921 7.57365C7.534 7.37599 7.33347 7.21642 7.10535 7.10676C6.87723 6.9971 6.62736 6.94017 6.37425 6.94017C6.12114 6.94017 5.87127 6.9971 5.64315 7.10676C5.41503 7.21642 5.2145 7.37599 5.0564 7.57365C4.89831 7.77132 4.78671 8.00202 4.72986 8.24866C4.67301 8.4953 4.67238 8.75158 4.728 8.9985H8.0205ZM15.9795 8.9985H19.2705C19.3261 8.75158 19.3255 8.4953 19.2686 8.24866C19.2118 8.00202 19.1002 7.77132 18.9421 7.57365C18.784 7.37599 18.5835 7.21642 18.3554 7.10676C18.1272 6.9971 17.8774 6.94017 17.6243 6.94017C17.3711 6.94017 17.1213 6.9971 16.8932 7.10676C16.665 7.21642 16.4645 7.37599 16.3064 7.57365C16.1483 7.77132 16.0367 8.00202 15.9799 8.24866C15.923 8.4953 15.9224 8.75158 15.978 8.9985H15.9795ZM12 17.25C13.8595 17.25 15.6527 16.5592 17.0317 15.3116C18.4106 14.0641 19.2769 12.3487 19.4625 10.4985H4.5375C4.72308 12.3487 5.58939 14.0641 6.96832 15.3116C8.34726 16.5592 10.1405 17.25 12 17.25ZM9 21.0015H15C15.1989 21.0015 15.3897 21.0805 15.5303 21.2212C15.671 21.3618 15.75 21.5526 15.75 21.7515C15.75 21.9504 15.671 22.1412 15.5303 22.2818C15.3897 22.4225 15.1989 22.5015 15 22.5015H9C8.80109 22.5015 8.61032 22.4225 8.46967 22.2818C8.32902 22.1412 8.25 21.9504 8.25 21.7515C8.25 21.5526 8.32902 21.3618 8.46967 21.2212C8.61032 21.0805 8.80109 21.0015 9 21.0015Z" fill="#346F1C" stroke="#346F1C" stroke-width="0.5"/>
</svg>
