<svg width="24" height="24" viewBox="0 0 24 24" fill="none" xmlns="http://www.w3.org/2000/svg">
<path d="M6 9.6225V2.25C6 2.05109 6.07902 1.86032 6.21967 1.71967C6.36032 1.57902 6.55109 1.5 6.75 1.5C6.94891 1.5 7.13968 1.57902 7.28033 1.71967C7.42098 1.86032 7.5 2.05109 7.5 2.25V9.6225C7.93887 9.46734 8.31881 9.17988 8.58746 8.79974C8.85611 8.4196 9.00024 7.96549 9 7.5V2.25C9 2.05109 9.07902 1.86032 9.21967 1.71967C9.36032 1.57902 9.55109 1.5 9.75 1.5C9.94891 1.5 10.1397 1.57902 10.2803 1.71967C10.421 1.86032 10.5 2.05109 10.5 2.25V7.5C10.5002 8.36449 10.2017 9.20249 9.65498 9.87218C9.1083 10.5419 8.34702 11.0021 7.5 11.175V21.75C7.5 21.9489 7.42098 22.1397 7.28033 22.2803C7.13968 22.421 6.94891 22.5 6.75 22.5C6.55109 22.5 6.36032 22.421 6.21967 22.2803C6.07902 22.1397 6 21.9489 6 21.75V11.175C5.15298 11.0021 4.3917 10.5419 3.84502 9.87218C3.29834 9.20249 2.99982 8.36449 3 7.5V2.25C3 2.05109 3.07902 1.86032 3.21967 1.71967C3.36032 1.57902 3.55109 1.5 3.75 1.5C3.94891 1.5 4.13968 1.57902 4.28033 1.71967C4.42098 1.86032 4.5 2.05109 4.5 2.25V7.5C4.49976 7.96549 4.64389 8.4196 4.91254 8.79974C5.18119 9.17988 5.56113 9.46734 6 9.6225ZM15 3.7575V12.75H17.97C17.892 10.905 17.667 9.282 17.2995 7.881C16.9635 6.603 16.2015 5.2245 15 3.759V3.7575ZM15 14.25V21.75C15 21.9489 14.921 22.1397 14.7803 22.2803C14.6397 22.421 14.4489 22.5 14.25 22.5C14.0511 22.5 13.8603 22.421 13.7197 22.2803C13.579 22.1397 13.5 21.9489 13.5 21.75V1.5H15C16.9995 3.597 18.2505 5.598 18.75 7.5C19.2495 9.402 19.5 11.652 19.5 14.25H15Z" fill="#346F1C" stroke="#346F1C" stroke-width="0.5"/>
</svg>
