<svg width="24" height="24" viewBox="0 0 24 24" fill="none" xmlns="http://www.w3.org/2000/svg">
<path d="M3 3V6.1154C3 7.03346 3.3647 7.91392 4.01387 8.56308C4.66303 9.21225 5.54349 9.57695 6.46155 9.57695C7.37961 9.57695 8.26007 9.21225 8.90924 8.56308C9.55841 7.91392 9.9231 7.03346 9.9231 6.1154V3M6.46155 3V21.0001M21.0001 21.0001C18.6131 21.0001 16.3239 20.0519 14.6361 18.364C12.9483 16.6762 12 14.387 12 12C12 9.61308 12.9483 7.32388 14.6361 5.63605C16.3239 3.94822 18.6131 3 21.0001 3" stroke="#397A1F" stroke-width="2.05128" stroke-linecap="round" stroke-linejoin="round"/>
<path d="M21.0001 16.8462C19.7148 16.8462 18.4822 16.3356 17.5733 15.4267C16.6645 14.5179 16.1539 13.2853 16.1539 12C16.1539 10.7147 16.6645 9.48205 17.5733 8.57322C18.4822 7.66439 19.7148 7.15381 21.0001 7.15381" stroke="#397A1F" stroke-width="2.05128" stroke-linecap="round" stroke-linejoin="round"/>
</svg>
