<svg width="174" height="35" fill="none" xmlns="http://www.w3.org/2000/svg">
  <path d="M4.56543 28V4.97363H.33203V.47461H14.8418v4.49902h-4.1836V28H4.56543ZM21.8483 24.5303c.2656 0 .5368-.0886.8135-.2657.2878-.1881.5202-.4095.6973-.664v-5.3789c-.8855.4427-1.6159 1.068-2.1914 1.876-.5645.7968-.8467 1.5771-.8467 2.3408 0 .6419.1439 1.151.4316 1.5273.2878.3763.653.5645 1.0957.5645Zm-2.0088 3.8183c-1.3945-.0221-2.5068-.5146-3.3369-1.4775-.819-.974-1.2285-2.0807-1.2285-3.3203 0-.6419.0775-1.2396.2324-1.793.166-.5644.3597-1.0514.5811-1.4609.2324-.4095.5534-.808.9629-1.1953.4095-.3874.7802-.6973 1.1123-.9297.332-.2435.7692-.4981 1.3115-.7637.5534-.2767.9961-.4814 1.3281-.6143.3321-.1328.7803-.3043 1.3447-.5146.5756-.2214.9795-.3818 1.212-.4814v-1.9424c0-.5534-.083-.9795-.2491-1.2784-.166-.2988-.4703-.4482-.913-.4482-.7527 0-1.1511.5202-1.1954 1.5606l-.1328 1.4443-5.1797-.1992c0-.0332.0056-.1439.0166-.3321.0111-.1881.0166-.2933.0166-.3154.1661-2.1471.8301-3.7298 1.9922-4.74804 1.1732-1.01823 2.8444-1.52734 5.0137-1.52734 1.9369 0 3.4089.53678 4.416 1.61035 1.0182 1.07353 1.5274 2.50683 1.5274 4.29983v9.1474c0 1.2618.1162 2.9053.3486 4.9307h-4.9307c-.2877-1.5938-.4427-2.5234-.4648-2.7891-.2656.8965-.7194 1.6436-1.3613 2.2412-.642.5977-1.4499.8965-2.4239.8965ZM37.0726 28.3486c-1.6712 0-3.0602-.3929-4.167-1.1787-1.1067-.7969-1.9977-2.053-2.6728-3.7685l3.8349-1.6768c.3763.9297.819 1.6491 1.3282 2.1582.4537.4649.9296.6973 1.4277.6973h.166c.3431-.0222.6309-.155.8633-.3985.2324-.2545.3431-.5644.332-.9296-.011-.1882-.083-.3874-.2158-.5977-.1217-.2214-.3597-.4981-.7139-.8301-.3541-.3431-.6032-.5755-.747-.6972-.1328-.1218-.4483-.393-.9463-.8135l-1.5274-1.3115c-2.2246-1.8816-3.3369-3.7188-3.3369-5.5118-.0111-1.0625.2712-2.0198.8467-2.872.5534-.84118 1.2894-1.48311 2.208-1.92582.9186-.45377 1.9147-.68066 2.9883-.68066 1.6048 0 2.944.43717 4.0176 1.31152 1.0846.87436 1.8483 2.11946 2.291 3.73536l-3.586 1.6768c-.2213-.7416-.5423-1.3946-.9628-1.959-.4206-.5645-.8965-.8633-1.4278-.8965h-.0498c-.3984-.0111-.7083.0941-.9297.3154-.2435.2214-.3707.4981-.3818.8301-.0443.5312.7415 1.472 2.3574 2.8223.1328.1217.2324.2102.2988.2656l1.4776 1.3281c.5755.4981 1.0071.891 1.2949 1.1787.2878.2767.6364.6641 1.0459 1.1621.4095.4981.7028 1.0072.8799 1.5274.1881.5202.2822 1.0791.2822 1.6767 0 1.1179-.2988 2.0918-.8965 2.9219-.5976.8301-1.3668 1.4443-2.3076 1.8428-.9297.3984-1.9534.5976-3.0713.5976ZM50.587 28.2324c-.6088-.0221-1.1622-.1051-1.6602-.249-.487-.1549-.902-.3486-1.2451-.5811-.3431-.2324-.6419-.5257-.8965-.8798-.2546-.3542-.4593-.7194-.6143-1.0957-.1438-.3763-.2601-.8135-.3486-1.3116-.0885-.498-.1494-.9739-.1826-1.4277-.0332-.4648-.0498-.985-.0498-1.5605v-9.1641h-1.876V8.34375h1.876V2.38379h5.5947v5.95996h2.8223v3.61915h-2.8223V22.123c0 1.0293.5921 1.5606 1.7764 1.5938.1439.0111.3043.0111.4814 0 .1882-.0111.3376-.0221.4483-.0332.1217-.0221.2379-.0443.3486-.0664.1217-.0221.1881-.0332.1992-.0332v4.3662c-1.1842.1992-2.2799.2988-3.2871.2988-.1881 0-.3763-.0055-.5644-.0166ZM56.8796 33.6943v-3.8349c1.2175 0 2.0586-.1218 2.5234-.3653.4206-.2213.6309-.6585.6309-1.3115 0-.0775-.0055-.1549-.0166-.2324-.0664-.5645-.3099-1.5938-.7305-3.0879-.1217-.5202-.8854-3.2705-2.291-8.251-1.4056-4.9915-2.1693-7.74737-2.291-8.26755h5.2295l2.4404 11.33885 1.8594-11.33885h5.2295L64.8318 29.0625c-.6862 3.0879-3.0271 4.6318-7.0225 4.6318H56.8796ZM78.9942 28V8.34375h5.5449v3.27055c1.2064-2.3464 2.5179-3.51957 3.9346-3.51957.1992 0 .4593.04427.7803.13281v4.91406c-.3099-.0775-.6143-.1162-.9131-.1162-1.5163.0775-2.7835.8688-3.8018 2.374V28h-5.5449ZM95.8787 15.9307h2.706v-1.959c0-.7305-.1217-1.2451-.3652-1.544-.2435-.3099-.5921-.4648-1.0459-.4648-.4316 0-.7581.1771-.9795.5312-.2103.3542-.3154.9574-.3154 1.8096v1.627Zm1.3115 12.4179c-2.1693 0-3.846-.581-5.0303-1.7431-1.1842-1.1621-1.7763-2.8002-1.7763-4.9141v-7.0391c0-2.1139.5921-3.7464 1.7763-4.89742 1.1953-1.16211 2.8721-1.74316 5.0303-1.74316 2.1803 0 3.8128.56445 4.8978 1.69336 1.095 1.11782 1.643 2.76692 1.643 4.94722v3.8682h-7.8523v3.4531c0 .7969.0996 1.4001.2988 1.8096.1992.3984.5368.5977 1.0127.5977.9297 0 1.3945-.6364 1.3945-1.9092v-1.3115h5.1463v1.1455c0 1.9589-.575 3.4586-1.726 4.499-1.14 1.0293-2.7451 1.5439-4.8148 1.5439ZM112.464 28.3486c-2.158 0-3.829-.581-5.013-1.7431-1.185-1.1732-1.777-2.8057-1.777-4.8975v-7.1055c0-2.0807.592-3.6966 1.777-4.84762 1.184-1.16211 2.855-1.74316 5.013-1.74316 2.125 0 3.758.49805 4.898 1.49414 1.151.98504 1.726 2.45704 1.726 4.41604v2.0752h-5.345v-2.2246c0-.7526-.106-1.2673-.316-1.544-.199-.2767-.514-.415-.946-.415-.432 0-.747.1715-.946.5146-.2.3431-.299.9352-.299 1.7764v8.1514c0 .8522.099 1.4388.299 1.7597.21.321.525.4815.946.4815.432 0 .747-.1439.946-.4317.21-.2988.316-.7913.316-1.4775V19.998h5.345v2.3741c0 1.9479-.581 3.431-1.743 4.4492-1.151 1.0182-2.778 1.5273-4.881 1.5273ZM121.33 5.04004V1.13867h5.578v3.90137h-5.578ZM121.363 28V8.34375h5.545V28h-5.545ZM136.737 24.7295h.033c.465-.0111.808-.2158 1.03-.6143.221-.4205.337-.9573.348-1.6103v-9.0977c0-.5976-.122-1.0957-.365-1.4941-.221-.3542-.537-.5313-.946-.5313h-.15c-.42.0332-.902.2491-1.444.6475V24.248c.531.321 1.029.4815 1.494.4815Zm-7.039 9.7451V8.34375h5.545v1.44434c1.35-1.18425 2.712-1.77637 4.084-1.77637h.183c1.416.04427 2.468.60872 3.154 1.69336.697 1.08462 1.046 2.45702 1.046 4.11722v8.3838c0 1.8704-.377 3.3645-1.129 4.4824-.742 1.1067-1.804 1.6601-3.188 1.6601-1.372 0-2.756-.6087-4.15-1.8261v7.9521h-5.545ZM151.297 15.9307h2.706v-1.959c0-.7305-.121-1.2451-.365-1.544-.243-.3099-.592-.4648-1.046-.4648-.431 0-.758.1771-.979.5312-.211.3542-.316.9574-.316 1.8096v1.627Zm1.312 12.4179c-2.169 0-3.846-.581-5.03-1.7431-1.185-1.1621-1.777-2.8002-1.777-4.9141v-7.0391c0-2.1139.592-3.7464 1.777-4.89742 1.195-1.16211 2.872-1.74316 5.03-1.74316 2.18 0 3.813.56445 4.897 1.69336 1.096 1.11782 1.644 2.76692 1.644 4.94722v3.8682h-7.853v3.4531c0 .7969.1 1.4001.299 1.8096.199.3984.537.5977 1.013.5977.93 0 1.394-.6364 1.394-1.9092v-1.3115h5.147v1.1455c0 1.9589-.576 3.4586-1.727 4.499-1.14 1.0293-2.744 1.5439-4.814 1.5439ZM167.236 28.3486c-1.672 0-3.061-.3929-4.167-1.1787-1.107-.7969-1.998-2.053-2.673-3.7685l3.835-1.6768c.376.9297.819 1.6491 1.328 2.1582.454.4649.929.6973 1.427.6973h.166c.344-.0222.631-.155.864-.3985.232-.2545.343-.5644.332-.9296-.011-.1882-.083-.3874-.216-.5977-.122-.2214-.36-.4981-.714-.8301-.354-.3431-.603-.5755-.747-.6972-.133-.1218-.448-.393-.946-.8135l-1.528-1.3115c-2.224-1.8816-3.336-3.7188-3.336-5.5118-.012-1.0625.271-2.0198.846-2.872.554-.84118 1.29-1.48311 2.208-1.92582.919-.45377 1.915-.68066 2.988-.68066 1.605 0 2.944.43717 4.018 1.31152 1.085.87436 1.848 2.11946 2.291 3.73536l-3.586 1.6768c-.221-.7416-.542-1.3946-.963-1.959-.42-.5645-.896-.8633-1.427-.8965h-.05c-.399-.0111-.709.0941-.93.3154-.243.2214-.371.4981-.382.8301-.044.5312.742 1.472 2.358 2.8223.132.1217.232.2102.298.2656l1.478 1.3281c.575.4981 1.007.891 1.295 1.1787.288.2767.636.6641 1.046 1.1621.409.4981.703 1.0072.88 1.5274.188.5202.282 1.0791.282 1.6767 0 1.1179-.299 2.0918-.897 2.9219-.597.8301-1.366 1.4443-2.307 1.8428-.93.3984-1.954.5976-3.071.5976Z" fill="#18330D"/>
</svg>
