<svg width="24" height="24" viewBox="0 0 24 24" fill="none" xmlns="http://www.w3.org/2000/svg">
<path d="M15 11.063C12.53 13.65 10.059 20 10.059 20C10.059 20 6.529 11.063 3 9" stroke="#B59641" stroke-width="2" stroke-linecap="round" stroke-linejoin="round"/>
<path d="M20.496 5.57701L20.922 10.001C21.198 12.871 19.047 15.426 16.177 15.703C13.361 15.973 10.81 13.915 10.539 11.099C10.4741 10.4293 10.5419 9.75346 10.7385 9.11C10.935 8.46655 11.2565 7.86814 11.6844 7.34898C12.1124 6.82983 12.6384 6.40011 13.2326 6.0844C13.8267 5.76868 14.4772 5.57316 15.147 5.50901L19.863 5.05501C19.9388 5.0477 20.0153 5.05541 20.0882 5.07769C20.1611 5.09997 20.2288 5.13639 20.2876 5.18486C20.3464 5.23334 20.3951 5.29292 20.4308 5.36021C20.4666 5.4275 20.4887 5.50117 20.496 5.57701Z" stroke="#B59641" stroke-width="2" stroke-linecap="round" stroke-linejoin="round"/>
</svg>
